<svg width="14" height="24" viewBox="0 0 14 24" fill="none" xmlns="http://www.w3.org/2000/svg">
<path d="M13.14 7.17C13.046 7.063 12.912 7.002 12.77 7H9V5.59C9 5.31 9.06 4.99 9.51 4.99H12.51C12.643 4.996 12.772 4.941 12.86 4.84C12.948 4.749 12.998 4.627 13 4.5V0.5C13 0.224 12.776 0 12.5 0H8.17C3.37 0 3 4.1 3 5.35V7H0.5C0.224 7 0 7.224 0 7.5V11.5C0 11.776 0.224 12 0.5 12H3V23.5C3 23.776 3.224 24 3.5 24H8.5C8.776 24 9 23.776 9 23.5V12H12.35C12.608 12.001 12.824 11.806 12.85 11.55L13.27 7.55C13.282 7.411 13.235 7.273 13.14 7.17Z" fill="#00826D"/>
</svg>
