<svg width="24" height="24" viewBox="0 0 24 24" fill="none" xmlns="http://www.w3.org/2000/svg">
<path d="M6.10001 7.4C6.30701 7.562 6.60401 7.536 6.78001 7.34C9.35601 4.457 13.781 4.209 16.664 6.785C16.815 6.92 16.961 7.062 17.1 7.21C17.294 7.406 17.611 7.407 17.807 7.213C17.808 7.212 17.809 7.211 17.81 7.21L20.73 4.47C20.926 4.276 20.927 3.959 20.733 3.763C20.732 3.762 20.731 3.761 20.73 3.76C16.186 -1.064 8.59101 -1.291 3.76701 3.253C3.46201 3.54 3.17301 3.843 2.90001 4.16C2.72001 4.37 2.74401 4.685 2.95401 4.865C2.96901 4.878 2.98401 4.889 3.00001 4.9L6.10001 7.4ZM5.24001 14.79C5.38801 14.657 5.44301 14.449 5.38001 14.26C4.88601 12.814 4.88601 11.246 5.38001 9.8C5.44701 9.601 5.38301 9.382 5.22001 9.25L1.95001 6.64C1.73401 6.468 1.41901 6.504 1.24701 6.72C1.22501 6.748 1.20601 6.778 1.19001 6.81C-0.434987 10.187 -0.379987 14.131 1.34001 17.46C1.46701 17.705 1.76901 17.801 2.01401 17.674C2.05201 17.654 2.08801 17.629 2.12001 17.6L5.24001 14.79ZM24 10.5C24 10.224 23.776 10 23.5 10H13.5C13.224 10 13 10.224 13 10.5V14.5C13 14.776 13.224 15 13.5 15H18.34C18.045 15.61 17.661 16.173 17.2 16.67C17.028 16.86 17.028 17.15 17.2 17.34L19.87 20.34C20.059 20.542 20.375 20.552 20.577 20.363C20.585 20.356 20.593 20.348 20.6 20.34C22.635 18.258 23.843 15.507 24 12.6V10.5ZM15.52 18.46C15.374 18.297 15.139 18.249 14.94 18.34C12.176 19.642 8.88501 18.979 6.84001 16.71C6.64601 16.519 6.33401 16.519 6.14001 16.71L3.14001 19.39C2.94401 19.584 2.94301 19.901 3.13701 20.097C3.13801 20.098 3.13901 20.099 3.14001 20.1C6.97201 24.315 13.24 25.256 18.14 22.35C18.377 22.209 18.455 21.902 18.314 21.665C18.298 21.638 18.28 21.613 18.26 21.59L15.52 18.46Z" fill="#008670"/>
</svg>
