<svg width="24" height="20" viewBox="0 0 24 20" fill="none" xmlns="http://www.w3.org/2000/svg">
<path d="M23.32 4.44C23.532 4.263 23.561 3.948 23.385 3.736C23.317 3.654 23.224 3.596 23.12 3.57L22.33 3.37C22.062 3.303 21.899 3.031 21.966 2.764C21.974 2.731 21.986 2.7 22 2.67L22.44 1.78C22.56 1.531 22.455 1.232 22.207 1.112C22.099 1.06 21.976 1.049 21.86 1.08L19.86 1.64C19.709 1.684 19.546 1.654 19.42 1.56C18.555 0.910999 17.502 0.559999 16.42 0.559999C13.659 0.559999 11.42 2.799 11.42 5.56V5.92C11.421 6.047 11.326 6.155 11.2 6.17C8.39001 6.5 5.70001 5.07 2.80001 1.73C2.67201 1.588 2.47501 1.53 2.29001 1.58C2.12401 1.656 2.01301 1.817 2.00001 2C1.59901 3.645 1.76101 5.377 2.46001 6.92C2.52201 7.043 2.47301 7.194 2.35001 7.256C2.30301 7.279 2.25101 7.288 2.20001 7.28L1.08001 7.06C0.807006 7.016 0.551006 7.202 0.507006 7.474C0.498006 7.533 0.499006 7.592 0.510006 7.65C0.685006 9.205 1.55701 10.595 2.88001 11.43C3.00401 11.49 3.05601 11.64 2.99601 11.764C2.97101 11.815 2.93101 11.856 2.88001 11.88L2.35001 12.09C2.09401 12.193 1.96901 12.484 2.07201 12.74C2.07701 12.754 2.08301 12.767 2.09001 12.78C2.68501 14.082 3.88101 15.009 5.29001 15.26C5.42001 15.307 5.48701 15.451 5.44001 15.58C5.41501 15.65 5.36001 15.704 5.29001 15.73C3.93001 16.292 2.47101 16.575 1.00001 16.56C0.724006 16.505 0.455006 16.684 0.400006 16.96C0.345006 17.236 0.524006 17.505 0.800006 17.56C3.34801 18.768 6.12101 19.426 8.94001 19.49C11.419 19.528 13.855 18.832 15.94 17.49C19.424 15.164 21.511 11.249 21.5 7.06V6.19C21.501 6.043 21.567 5.904 21.68 5.81L23.32 4.44Z" fill="#00A58C"/>
</svg>
