<svg width="400" height="400" viewBox="0 0 400 400" fill="none" xmlns="http://www.w3.org/2000/svg">
<path d="M400 305.92H0V306.12H400V305.92Z" fill="#EBEBEB"/>
<path d="M89.328 312.632H62.832V312.832H89.328V312.632Z" fill="#EBEBEB"/>
<path d="M130.8 318.4H106.664V318.6H130.8V318.4Z" fill="#EBEBEB"/>
<path d="M76.08 320.056H45.48V320.256H76.08V320.056Z" fill="#EBEBEB"/>
<path d="M359.92 319.624H347.2V319.824H359.92V319.624Z" fill="#EBEBEB"/>
<path d="M344.632 319.624H313.176V319.824H344.632V319.624Z" fill="#EBEBEB"/>
<path d="M224.264 312.528H200V312.728H224.264V312.528Z" fill="#EBEBEB"/>
<path d="M285.416 312.528H227.736V312.728H285.416V312.528Z" fill="#EBEBEB"/>
<path d="M189.6 270.24H35.128C33.9179 270.238 32.758 269.756 31.9031 268.899C31.0482 268.043 30.568 266.882 30.568 265.672V48.528C30.5785 47.3248 31.0633 46.1744 31.9171 45.3266C32.7709 44.4788 33.9248 44.0021 35.128 44H189.6C190.812 44 191.973 44.4813 192.83 45.3379C193.687 46.1946 194.168 47.3565 194.168 48.568V265.672C194.168 266.884 193.687 268.045 192.83 268.902C191.973 269.759 190.812 270.24 189.6 270.24ZM35.128 44.16C33.9709 44.1621 32.862 44.6233 32.0445 45.4422C31.2271 46.2611 30.768 47.3709 30.768 48.528V265.672C30.768 266.829 31.2271 267.939 32.0445 268.758C32.862 269.577 33.9709 270.038 35.128 270.04H189.6C190.758 270.038 191.868 269.577 192.686 268.758C193.505 267.94 193.966 266.83 193.968 265.672V48.528C193.966 47.3702 193.505 46.2604 192.686 45.4417C191.868 44.623 190.758 44.1621 189.6 44.16H35.128Z" fill="#EBEBEB"/>
<path d="M362.648 270.24H208.168C206.957 270.238 205.796 269.756 204.94 268.9C204.084 268.044 203.602 266.883 203.6 265.672V48.528C203.613 47.3241 204.099 46.1737 204.954 45.3261C205.809 44.4785 206.964 44.002 208.168 44H362.648C363.85 44.0042 365.002 44.4818 365.854 45.3294C366.706 46.177 367.189 47.3262 367.2 48.528V265.672C367.2 266.881 366.721 268.04 365.868 268.896C365.014 269.753 363.857 270.236 362.648 270.24ZM208.168 44.16C207.01 44.1621 205.9 44.623 205.082 45.4417C204.263 46.2604 203.802 47.3702 203.8 48.528V265.672C203.802 266.83 204.263 267.94 205.082 268.758C205.9 269.577 207.01 270.038 208.168 270.04H362.648C363.806 270.038 364.916 269.577 365.734 268.758C366.553 267.94 367.014 266.83 367.016 265.672V48.528C367.014 47.3702 366.553 46.2604 365.734 45.4417C364.916 44.623 363.806 44.1621 362.648 44.16H208.168Z" fill="#EBEBEB"/>
<path d="M234.712 212.968H211.696V305.92H234.712V212.968Z" fill="#E6E6E6"/>
<path d="M225.144 305.92H234.712V289.888H215.112L225.144 305.92Z" fill="#F5F5F5"/>
<path d="M68.496 212.968H45.48V305.92H68.496V212.968Z" fill="#E6E6E6"/>
<path d="M234.704 212.968H60.144V300.4H234.704V212.968Z" fill="#F5F5F5"/>
<path d="M227.688 239.808H67.2V220.688H227.688V239.808ZM68 239.008H226.888V221.488H68V239.008Z" fill="#EBEBEB"/>
<path d="M69.712 305.92H60.144V289.888H79.744L69.712 305.92Z" fill="#F5F5F5"/>
<path d="M227.688 292.68H67.2V247.08H227.688V292.68ZM68 291.88H226.888V247.88H68V291.88Z" fill="#EBEBEB"/>
<path d="M326.296 62.816H144.392V188.784H326.296V62.816Z" fill="#E6E6E6"/>
<path d="M329.64 62.816H147.736V188.784H329.64V62.816Z" fill="#F5F5F5"/>
<path d="M323.632 182.432V69.184L153.736 69.184V182.432H323.632Z" fill="white"/>
<path d="M323.64 182.424V69.176H321.112V182.424H323.64Z" fill="#E6E6E6"/>
<path d="M327.152 79.32H150.216V83.592H327.152V79.32Z" fill="#F5F5F5"/>
<g opacity="0.5">
<path opacity="0.5" d="M326.664 58.608H319.48V198.52H326.664V58.608Z" fill="#F0F0F0"/>
<path opacity="0.5" d="M317.536 58.608H310.352V198.52H317.536V58.608Z" fill="#F0F0F0"/>
<path opacity="0.5" d="M308.408 58.608H301.224V198.52H308.408V58.608Z" fill="#F0F0F0"/>
<path opacity="0.5" d="M299.288 58.608H292.104V198.52H299.288V58.608Z" fill="#F0F0F0"/>
<path opacity="0.5" d="M290.16 58.608H282.976V198.52H290.16V58.608Z" fill="#F0F0F0"/>
<path opacity="0.5" d="M281.032 58.608H273.848V198.52H281.032V58.608Z" fill="#F0F0F0"/>
<path opacity="0.5" d="M271.912 58.608H264.728V198.52H271.912V58.608Z" fill="#F0F0F0"/>
<path opacity="0.5" d="M262.784 58.608H255.6V198.52H262.784V58.608Z" fill="#F0F0F0"/>
<path opacity="0.5" d="M253.656 58.608H246.472V198.52H253.656V58.608Z" fill="#F0F0F0"/>
<path opacity="0.5" d="M244.528 58.608H237.344V198.52H244.528V58.608Z" fill="#F0F0F0"/>
<path opacity="0.5" d="M235.408 58.608H228.224V198.52H235.408V58.608Z" fill="#F0F0F0"/>
<path opacity="0.5" d="M226.28 58.608H219.096V198.52H226.28V58.608Z" fill="#F0F0F0"/>
<path opacity="0.5" d="M217.152 58.608H209.968V198.52H217.152V58.608Z" fill="#F0F0F0"/>
<path opacity="0.5" d="M208.024 58.608H200.84V198.52H208.024V58.608Z" fill="#F0F0F0"/>
<path opacity="0.5" d="M198.904 58.608H191.72V198.52H198.904V58.608Z" fill="#F0F0F0"/>
</g>
<path d="M102.6 77.864H49.88V173.736H102.6V77.864Z" fill="#F0F0F0"/>
<path d="M113.92 77.864H53.28V173.736H113.92V77.864Z" fill="#F5F5F5"/>
<path d="M55.752 80.136L55.752 171.464H111.448V80.136H55.752Z" fill="white"/>
<path d="M70.6 98.312V153.288C70.6 154.507 71.5886 155.496 72.808 155.496H94.4C95.6195 155.496 96.608 154.507 96.608 153.288V98.312C96.608 97.0925 95.6195 96.104 94.4 96.104H72.808C71.5886 96.104 70.6 97.0925 70.6 98.312Z" fill="#F5F5F5"/>
<path d="M307.128 157.832L317.912 184.408C317.6 261.28 321.072 265.712 321.112 278.936H293.912C292.904 214.592 302.448 229.056 307.128 157.832Z" fill="#EBEBEB"/>
<path d="M322.328 236.336C300.416 176.008 249.968 194.688 252.232 216.68C254.496 238.672 334.928 271.032 322.328 236.336Z" fill="#EBEBEB"/>
<path d="M314.04 271.12C302.088 232.248 270.296 238.592 270.296 256.456C270.296 274.32 320.92 293.48 314.04 271.12Z" fill="#EBEBEB"/>
<path d="M313.192 200.944C294.424 148.944 247.68 156.144 251.448 178.056C255.216 199.968 324 230.832 313.192 200.944Z" fill="#EBEBEB"/>
<path d="M313.32 177.64C315.056 142.232 279.992 127.656 282.424 148.84C284.856 170.024 312.32 198 313.32 177.64Z" fill="#EBEBEB"/>
<path d="M310.704 213.888C318.104 170.256 363.04 153.664 358.016 178.36C352.992 203.056 306.44 238.984 310.704 213.888Z" fill="#EBEBEB"/>
<path d="M306.92 189.224C298.192 143.472 338.56 123.144 339.72 145.224C340.88 167.304 311.936 215.536 306.92 189.224Z" fill="#EBEBEB"/>
<path d="M303.416 240.904C321.248 196.816 359.416 207.752 355.584 227.816C351.752 247.88 293.16 266.264 303.416 240.904Z" fill="#EBEBEB"/>
<path d="M312.216 271.688C311.816 243.248 337.64 235.896 337.944 252.376C338.248 268.856 312.448 288.048 312.216 271.688Z" fill="#EBEBEB"/>
<path d="M304.328 306.12C297.564 306.142 290.994 303.855 285.706 299.636C280.419 295.417 276.729 289.52 275.248 282.92C274.55 279.37 273.535 275.889 272.216 272.52L272 271.976H336.664L336.44 272.52C335.123 275.889 334.111 279.37 333.416 282.92C331.933 289.521 328.242 295.418 322.953 299.637C317.664 303.855 311.093 306.142 304.328 306.12Z" fill="#E0E0E0"/>
<path d="M200 342.048C285.666 342.048 355.112 337.993 355.112 332.992C355.112 327.99 285.666 323.936 200 323.936C114.334 323.936 44.888 327.99 44.888 332.992C44.888 337.993 114.334 342.048 200 342.048Z" fill="#F5F5F5"/>
<path d="M103.496 171.152L102.992 170.536C105.061 168.849 107.254 167.319 109.552 165.96L109.96 166.656C107.696 167.991 105.535 169.494 103.496 171.152Z" fill="#92E3A9"/>
<path d="M87.064 194.016L86.32 193.736C89.0674 186.426 93.341 179.785 98.856 174.256L99.424 174.824C93.9896 180.272 89.7763 186.815 87.064 194.016Z" fill="#92E3A9"/>
<path d="M242.056 229.272C241.996 222.327 240.24 215.503 236.94 209.391C233.641 203.28 228.898 198.068 223.125 194.208C217.352 190.348 210.723 187.957 203.815 187.243C196.907 186.529 189.929 187.514 183.488 190.112C178.804 180.514 171.252 172.61 161.877 167.493C152.503 162.376 141.77 160.3 131.163 161.552C120.557 162.804 110.602 167.323 102.677 174.482C94.7518 181.641 89.2482 191.087 86.928 201.512C75.4296 202.237 64.6655 207.412 56.9173 215.938C49.1691 224.465 45.0458 235.674 45.4213 247.189C45.7969 258.704 50.6418 269.62 58.9291 277.624C67.2164 285.628 78.2948 290.09 89.816 290.064H230.872C238.226 290.074 245.35 287.504 251.004 282.802C256.659 278.101 260.485 271.565 261.817 264.333C263.15 257.101 261.903 249.631 258.295 243.223C254.687 236.815 248.946 231.875 242.072 229.264L242.056 229.272Z" fill="#92E3A9"/>
<path d="M210.328 214.952H97.448C96.5292 214.948 95.6494 214.58 95.0004 213.93C94.3515 213.279 93.9861 212.399 93.984 211.48C93.9861 210.562 94.3517 209.682 95.0009 209.033C95.6501 208.384 96.5299 208.018 97.448 208.016H210.328C211.246 208.018 212.126 208.384 212.775 209.033C213.424 209.682 213.79 210.562 213.792 211.48C213.79 212.399 213.425 213.279 212.776 213.93C212.127 214.58 211.247 214.948 210.328 214.952Z" fill="#263238"/>
<path d="M193.304 261.832H114.472C111.383 261.832 108.42 260.605 106.236 258.42C104.051 256.236 102.824 253.273 102.824 250.184C102.824 247.095 104.051 244.132 106.236 241.948C108.42 239.763 111.383 238.536 114.472 238.536H193.304C196.393 238.536 199.356 239.763 201.54 241.948C203.725 244.132 204.952 247.095 204.952 250.184C204.952 253.273 203.725 256.236 201.54 258.42C199.356 260.605 196.393 261.832 193.304 261.832ZM114.472 239.336C111.595 239.336 108.836 240.479 106.801 242.513C104.767 244.548 103.624 247.307 103.624 250.184C103.624 253.061 104.767 255.82 106.801 257.855C108.836 259.889 111.595 261.032 114.472 261.032H193.304C196.181 261.032 198.94 259.889 200.975 257.855C203.009 255.82 204.152 253.061 204.152 250.184C204.152 247.307 203.009 244.548 200.975 242.513C198.94 240.479 196.181 239.336 193.304 239.336H114.472Z" fill="white"/>
<path d="M132.888 259.032H114.488C112.137 259.034 109.881 258.104 108.215 256.445C106.549 254.787 105.608 252.535 105.6 250.184C105.606 247.839 106.54 245.591 108.198 243.932C109.856 242.272 112.103 241.336 114.448 241.328H132.848C135.193 241.336 137.44 242.272 139.098 243.932C140.756 245.591 141.69 247.839 141.696 250.184C141.688 252.521 140.758 254.761 139.109 256.417C137.46 258.074 135.225 259.013 132.888 259.032Z" fill="white"/>
<path d="M213.552 147.704L198.584 211.48H109.288L134.264 105.04L196.096 119.544L213.552 147.704Z" fill="#92E3A9"/>
<path opacity="0.8" d="M213.552 147.704L198.584 211.48H109.288L134.264 105.04L196.096 119.544L213.552 147.704Z" fill="#FAFAFA"/>
<path d="M201.904 159.56L134.08 143.64C133.848 143.586 133.629 143.487 133.436 143.349C133.242 143.21 133.078 143.035 132.952 142.833C132.826 142.631 132.742 142.406 132.704 142.171C132.665 141.936 132.673 141.696 132.728 141.464C132.837 140.995 133.127 140.589 133.535 140.334C133.943 140.079 134.435 139.996 134.904 140.104L202.736 156C203.204 156.112 203.608 156.405 203.862 156.814C204.115 157.223 204.196 157.715 204.088 158.184C203.979 158.655 203.689 159.064 203.279 159.322C202.87 159.58 202.376 159.665 201.904 159.56Z" fill="#92E3A9"/>
<path d="M199.312 170.6L131.488 154.68C131.256 154.625 131.037 154.526 130.843 154.386C130.649 154.247 130.485 154.071 130.36 153.868C130.234 153.665 130.15 153.44 130.111 153.204C130.073 152.969 130.081 152.728 130.136 152.496C130.248 152.028 130.541 151.624 130.95 151.37C131.359 151.117 131.851 151.036 132.32 151.144L200.144 167.064C200.611 167.174 201.016 167.465 201.269 167.873C201.522 168.281 201.604 168.772 201.496 169.24C201.386 169.709 201.094 170.116 200.685 170.371C200.275 170.626 199.782 170.708 199.312 170.6Z" fill="#92E3A9"/>
<path d="M196.72 181.6L128.896 165.688C128.428 165.576 128.024 165.283 127.77 164.874C127.517 164.465 127.436 163.973 127.544 163.504C127.658 163.037 127.951 162.634 128.359 162.381C128.768 162.128 129.259 162.046 129.728 162.152L197.552 178.064C197.784 178.119 198.003 178.218 198.197 178.358C198.391 178.497 198.555 178.673 198.68 178.876C198.806 179.079 198.89 179.304 198.929 179.54C198.967 179.775 198.959 180.016 198.904 180.248C198.849 180.48 198.75 180.699 198.61 180.893C198.471 181.087 198.295 181.251 198.092 181.376C197.889 181.502 197.664 181.586 197.428 181.625C197.193 181.663 196.952 181.655 196.72 181.6Z" fill="#92E3A9"/>
<path d="M194.136 192.672L126.304 176.8C125.837 176.686 125.434 176.393 125.181 175.985C124.928 175.576 124.846 175.085 124.952 174.616C125.064 174.148 125.357 173.744 125.766 173.49C126.175 173.237 126.667 173.156 127.136 173.264L194.96 189.176C195.428 189.288 195.833 189.58 196.088 189.989C196.342 190.398 196.426 190.89 196.32 191.36C196.201 191.822 195.905 192.218 195.497 192.463C195.088 192.709 194.599 192.784 194.136 192.672Z" fill="#92E3A9"/>
<path d="M164.576 197.384L123.72 187.784C123.257 187.667 122.859 187.372 122.612 186.963C122.365 186.554 122.289 186.064 122.4 185.6C122.454 185.368 122.553 185.149 122.691 184.956C122.83 184.762 123.005 184.598 123.207 184.472C123.409 184.346 123.634 184.262 123.869 184.224C124.104 184.185 124.344 184.193 124.576 184.248L165.44 193.848C165.672 193.903 165.891 194.002 166.085 194.142C166.279 194.281 166.443 194.457 166.568 194.66C166.694 194.863 166.778 195.088 166.817 195.324C166.855 195.559 166.847 195.8 166.792 196.032C166.738 196.268 166.637 196.49 166.495 196.686C166.354 196.882 166.175 197.048 165.968 197.174C165.762 197.3 165.532 197.383 165.293 197.419C165.054 197.455 164.81 197.443 164.576 197.384Z" fill="#92E3A9"/>
<path d="M213.552 147.704L190.744 142.352L196.096 119.544L213.552 147.704Z" fill="#92E3A9"/>
<path d="M228.872 208.264L209.912 332.992H213.656L216.16 316.488H264.464L261.96 332.992H265.704L284.664 208.264H228.872ZM264.968 313.184H216.664L219.36 295.488H267.664L264.968 313.184ZM268.168 292.184H219.856L222.552 274.488H270.856L268.168 292.184ZM271.368 271.184H223.048L225.744 253.488H274.048L271.368 271.184ZM274.568 250.184H226.248L228.936 232.48H277.24L274.568 250.184ZM229.44 229.176L232.128 211.48H280.432L277.744 229.176H229.44Z" fill="#263238"/>
<path d="M292.464 208.264H236.672L255.632 332.992H259.376L256.864 316.488H305.168L307.68 332.992H311.424L292.464 208.264ZM240.904 211.464H289.208L291.896 229.16H243.592L240.904 211.464ZM244.104 232.464H292.4L295.088 250.168H246.784L244.104 232.464ZM247.304 253.472H295.608L298.28 271.2H249.976L247.304 253.472ZM250.504 274.472H298.808L301.496 292.168H253.168L250.504 274.472ZM256.384 313.168L253.696 295.472H302L304.688 313.168H256.384Z" fill="#263238"/>
<path opacity="0.4" d="M292.464 208.264H236.672L255.632 332.992H259.376L256.864 316.488H305.168L307.68 332.992H311.424L292.464 208.264ZM240.904 211.464H289.208L291.896 229.16H243.592L240.904 211.464ZM244.104 232.464H292.4L295.088 250.168H246.784L244.104 232.464ZM247.304 253.472H295.608L298.28 271.2H249.976L247.304 253.472ZM250.504 274.472H298.808L301.496 292.168H253.168L250.504 274.472ZM256.384 313.168L253.696 295.472H302L304.688 313.168H256.384Z" fill="white"/>
<path d="M268.56 86.864C270.16 88.096 271.568 89.328 273.024 90.608C274.48 91.888 275.872 93.2 277.248 94.552C280.04 97.2889 282.648 100.207 285.056 103.288L285.952 104.496L286.4 105.096C286.653 105.45 286.88 105.821 287.08 106.208C287.724 107.501 288.099 108.91 288.184 110.352C288.3 112.574 288.071 114.8 287.504 116.952C286.526 120.813 285.036 124.526 283.072 127.992L278.984 126.328C279.802 122.876 280.382 119.372 280.72 115.84C280.872 114.318 280.824 112.782 280.576 111.272C280.504 110.841 280.343 110.43 280.104 110.064C280.064 110.024 280.048 110.024 280.024 110L279.592 109.512L278.728 108.528C276.328 105.936 273.8 103.408 271.128 100.976C268.456 98.544 265.688 96.096 263 93.824L268.56 86.864Z" fill="#7F3E3B"/>
<path d="M280.608 124.68L276.008 127.88L281.608 131.272C281.608 131.272 284.496 128.512 283.256 125.952L280.608 124.68Z" fill="#7F3E3B"/>
<path d="M273.72 133.136L277.96 135.512L281.64 131.232L276.008 127.848L273.72 133.136Z" fill="#7F3E3B"/>
<path d="M237.24 70.144C237.368 70.664 237.2 71.152 236.864 71.24C236.528 71.328 236.144 70.976 236.008 70.44C235.872 69.904 236.048 69.432 236.384 69.344C236.72 69.256 237.104 69.6 237.24 70.144Z" fill="#263238"/>
<path d="M237.248 71.144C237.037 72.8828 236.588 74.5841 235.912 76.2C236.33 76.3614 236.779 76.43 237.226 76.401C237.674 76.372 238.11 76.2461 238.504 76.032L237.248 71.144Z" fill="#630F0F"/>
<path d="M238.336 66.808C238.274 66.8282 238.206 66.8282 238.144 66.808C237.781 66.6539 237.387 66.5874 236.994 66.6138C236.601 66.6402 236.219 66.7588 235.88 66.96C235.813 66.9964 235.735 67.0071 235.661 66.99C235.587 66.9729 235.521 66.9293 235.477 66.8673C235.433 66.8053 235.413 66.7293 235.421 66.6535C235.428 66.5777 235.464 66.5075 235.52 66.456C235.942 66.1907 236.422 66.0311 236.92 65.9907C237.417 65.9503 237.916 66.0304 238.376 66.224C238.437 66.2486 238.489 66.2918 238.524 66.3476C238.559 66.4034 238.575 66.4688 238.571 66.5345C238.566 66.6002 238.541 66.6629 238.499 66.7134C238.457 66.764 238.4 66.7999 238.336 66.816V66.808Z" fill="#263238"/>
<path d="M253.64 71.6C254.384 76.48 255.432 83.96 259.72 85.848C259.72 85.848 260.136 90.92 251.664 93.968C242.352 97.32 245.552 90.952 245.552 90.952C250.2 87.904 248.712 84.184 246.552 80.96L253.64 71.6Z" fill="#7F3E3B"/>
<path d="M260.52 84.8C260.52 83.272 258.96 80.624 257.384 80.8C255.648 81 249.024 83.44 246.608 85.672C244.192 87.904 245.904 91.816 245.904 91.816L260.52 84.8Z" fill="#263238"/>
<path d="M311.6 269.76C311.184 270.192 310.712 270.56 310.344 270.504C310.184 270.504 309.976 270.392 309.872 270.04C309.844 269.951 309.836 269.857 309.849 269.764C309.861 269.671 309.894 269.583 309.944 269.504C310.392 268.744 312.344 268.352 312.4 268.336C312.427 268.331 312.455 268.333 312.48 268.343C312.506 268.353 312.528 268.37 312.544 268.392C312.557 268.415 312.564 268.441 312.564 268.468C312.564 268.495 312.557 268.521 312.544 268.544C312.272 268.981 311.956 269.388 311.6 269.76ZM310.288 269.512C310.244 269.552 310.206 269.597 310.176 269.648C310.148 269.694 310.13 269.746 310.123 269.8C310.116 269.854 310.121 269.908 310.136 269.96C310.216 270.208 310.336 270.224 310.376 270.232C310.784 270.28 311.624 269.432 312.128 268.688C311.46 268.82 310.831 269.102 310.288 269.512Z" fill="#92E3A9"/>
<path d="M312.528 268.568C312.513 268.586 312.494 268.599 312.472 268.608C311.808 268.816 310.072 268.76 309.68 268.216C309.624 268.129 309.598 268.027 309.606 267.924C309.615 267.821 309.658 267.724 309.728 267.648C309.792 267.561 309.873 267.489 309.967 267.437C310.061 267.385 310.165 267.353 310.272 267.344C311.144 267.24 312.464 268.32 312.52 268.368C312.539 268.383 312.553 268.403 312.561 268.426C312.57 268.448 312.572 268.472 312.568 268.496C312.562 268.523 312.548 268.548 312.528 268.568ZM309.992 267.768C309.992 267.768 309.992 267.768 309.952 267.816C309.84 267.96 309.888 268.024 309.912 268.056C310.136 268.376 311.36 268.52 312.112 268.4C311.605 267.955 310.974 267.676 310.304 267.6C310.243 267.605 310.184 267.622 310.13 267.651C310.077 267.68 310.029 267.72 309.992 267.768Z" fill="#92E3A9"/>
<path d="M263.2 286.48C262.448 286.48 261.72 286.376 261.472 286.04C261.41 285.951 261.377 285.845 261.377 285.736C261.377 285.627 261.41 285.521 261.472 285.432C261.519 285.35 261.583 285.279 261.658 285.223C261.734 285.166 261.82 285.126 261.912 285.104C262.888 284.84 264.944 286.008 265.032 286.064C265.056 286.077 265.075 286.097 265.086 286.122C265.098 286.146 265.101 286.173 265.096 286.2C265.093 286.229 265.08 286.257 265.06 286.279C265.04 286.3 265.013 286.315 264.984 286.32C264.395 286.424 263.798 286.477 263.2 286.48ZM262.272 285.344C262.182 285.331 262.09 285.331 262 285.344C261.944 285.355 261.89 285.378 261.844 285.411C261.797 285.444 261.757 285.487 261.728 285.536C261.632 285.712 261.664 285.792 261.728 285.848C262 286.224 263.48 286.232 264.576 286.08C263.865 285.689 263.086 285.439 262.28 285.344H262.272Z" fill="#92E3A9"/>
<path d="M264.984 286.32C264.966 286.327 264.946 286.327 264.928 286.32C264.216 286.008 262.816 284.72 262.92 284.072C262.92 283.912 263.056 283.72 263.44 283.68C263.583 283.663 263.727 283.675 263.865 283.716C264.003 283.757 264.13 283.827 264.24 283.92C264.778 284.558 265.098 285.351 265.152 286.184C265.155 286.208 265.152 286.233 265.142 286.256C265.132 286.278 265.116 286.298 265.096 286.312C265.079 286.321 265.06 286.327 265.041 286.328C265.022 286.329 265.002 286.327 264.984 286.32ZM263.552 283.92H263.464C263.216 283.92 263.2 284.04 263.192 284.072C263.128 284.472 264.088 285.472 264.792 285.904C264.723 285.232 264.443 284.599 263.992 284.096C263.867 283.996 263.712 283.94 263.552 283.936V283.92Z" fill="#92E3A9"/>
<path d="M271.448 286.184H265.568L264.984 272.568H270.864L271.448 286.184Z" fill="#7F3E3B"/>
<path d="M318.544 266.248L313.104 268.224L306.192 256.032L311.632 254.056L318.544 266.248Z" fill="#7F3E3B"/>
<path d="M312.248 267.688L316.84 262.936C316.922 262.854 317.028 262.802 317.142 262.788C317.257 262.773 317.373 262.797 317.472 262.856L322.032 265.656C322.142 265.725 322.235 265.818 322.305 265.928C322.374 266.038 322.418 266.162 322.432 266.291C322.447 266.421 322.432 266.551 322.389 266.674C322.346 266.797 322.276 266.908 322.184 267C320.584 268.6 319.68 269.344 317.664 271.432C316.416 272.712 312.72 277.032 311.008 278.84C309.296 280.648 307.312 279.144 307.856 278.264C310.296 274.32 311.768 270.568 311.856 268.624C311.867 268.274 312.006 267.941 312.248 267.688Z" fill="#263238"/>
<path d="M265.6 285.504H272C272.117 285.503 272.231 285.542 272.323 285.615C272.414 285.688 272.478 285.79 272.504 285.904L273.664 291.128C273.693 291.254 273.693 291.385 273.664 291.512C273.635 291.638 273.577 291.756 273.495 291.856C273.413 291.957 273.31 292.037 273.192 292.091C273.074 292.145 272.946 292.171 272.816 292.168C270.504 292.168 267.16 292 264.248 292C260.848 292 259.36 292.184 255.368 292.184C252.968 292.184 252.288 289.744 253.296 289.52C257.896 288.512 260.192 288.408 264.168 285.96C264.594 285.678 265.09 285.52 265.6 285.504Z" fill="#263238"/>
<path d="M249.64 98.536C248.736 100.816 247.776 102.936 246.784 105.112C245.792 107.288 244.736 109.4 243.648 111.512C241.443 115.857 238.916 120.032 236.088 124C235.344 125.008 234.544 126.008 233.688 127C233.248 127.504 232.8 127.968 232.272 128.488C231.661 129.065 230.994 129.58 230.28 130.024C229.105 130.743 227.868 131.356 226.584 131.856C225.384 132.344 224.184 132.744 223.008 133.096C218.373 134.44 213.617 135.325 208.808 135.736L207.912 131.416C212.192 129.872 216.544 128.264 220.552 126.472C221.544 126.008 222.52 125.536 223.432 125.048C224.275 124.61 225.078 124.099 225.832 123.52C226.092 123.324 226.331 123.102 226.544 122.856C226.824 122.528 227.16 122.144 227.464 121.752C228.08 120.952 228.688 120.104 229.272 119.2C230.464 117.424 231.568 115.496 232.632 113.536C233.696 111.576 234.736 109.536 235.728 107.536C237.72 103.48 239.648 99.28 241.424 95.176L249.64 98.536Z" fill="#7F3E3B"/>
<path d="M263.056 83.352C271.488 82.696 279.056 95.2 279.056 95.2L273 105.04C268.643 103.318 264.591 100.905 261 97.896C255.264 92.912 257.296 83.808 263.056 83.352Z" fill="#92E3A9"/>
<path opacity="0.3" d="M262.528 93.888L271.4 105.832L271 106.32C271 106.32 267.944 103.92 264.408 100.448L262.528 93.888Z" fill="black"/>
<path d="M239.672 92.672C239.2 96.792 246.072 115.016 247.672 136.632L278.96 133.552C278.736 129.408 276.448 111.952 272.304 92.248C271.16 86.808 266.944 82.648 261.496 83.712H261.344C256.968 84.5662 252.646 85.6747 248.4 87.032C245.998 87.9068 243.656 88.9411 241.392 90.128C240.918 90.3778 240.513 90.7407 240.213 91.1845C239.913 91.6283 239.727 92.1392 239.672 92.672Z" fill="#92E3A9"/>
<path opacity="0.3" d="M242.84 107.808C243.368 110.008 243.92 112.392 244.44 114.928C249.2 113.8 248.28 103.248 248.376 103.112L242.84 107.808Z" fill="black"/>
<path d="M249.864 94.712C252.264 102.944 243.384 113.912 243.384 113.912L234.44 108.152C234.44 108.152 234.376 100.608 237.232 94.72C240.856 87.264 248.152 88.84 249.864 94.712Z" fill="#92E3A9"/>
<path d="M208 130.632L204.408 130.144L204.464 137.648C204.464 137.648 209.304 138.144 211.992 134.808L211.464 133.4C211.19 132.669 210.723 132.026 210.113 131.539C209.504 131.051 208.773 130.738 208 130.632Z" fill="#7F3E3B"/>
<path d="M198.272 131.88L200.568 137.992L204.496 137.648L204.44 130.144L198.272 131.88Z" fill="#7F3E3B"/>
<path opacity="0.2" d="M264.984 272.576L265.312 280.224H271.192L270.864 272.576H264.984Z" fill="black"/>
<path opacity="0.2" d="M311.632 254.056L306.192 256.032L310.016 262.784L315.2 260.336L311.632 254.056Z" fill="black"/>
<path d="M254.208 64.624C255.448 71.08 256.504 74.792 254.128 78.88C250.56 85.024 241.968 84.12 238.832 78.168C236 72.8 234.448 63.152 240 59.032C241.224 58.1114 242.663 57.5199 244.18 57.3138C245.698 57.1077 247.243 57.2939 248.668 57.8548C250.093 58.4156 251.35 59.3323 252.32 60.5174C253.29 61.7024 253.94 63.1163 254.208 64.624Z" fill="#7F3E3B"/>
<path d="M243.336 68.9368C239.4 70.9048 239.336 64.6168 239.648 63.2808C238.168 64.7048 236.168 66.1368 232.536 64.5688C228.072 62.6408 229.336 57.6008 232.536 57.6648C232.536 57.6648 230.136 53.1048 235.384 52.6248C237.544 52.5529 239.698 52.8839 241.736 53.6008C241.736 53.6008 243.68 48.5048 248.416 50.9768C250.92 52.2808 252.92 56.1368 252.92 56.1368C252.92 56.1368 263.12 57.6488 257.584 62.9768C258.84 65.7128 258.176 74.6168 254.936 78.4248C253.52 80.0888 241.4 79.6008 243.336 68.9368Z" fill="#263238"/>
<path d="M251.152 58.736C251.152 58.736 253 56.184 253.152 50.296C257.464 54.984 251.152 58.736 251.152 58.736Z" fill="#263238"/>
<path d="M245.248 68.576C245.352 70.2076 244.913 71.8278 244 73.184C242.8 74.968 241.168 74.2 240.64 72.32C240.16 70.632 240.208 67.664 241.832 66.544C243.456 65.424 245.08 66.608 245.248 68.576Z" fill="#7F3E3B"/>
<path d="M258.784 135.544C258.784 135.544 269.824 179.544 275.12 195.968C280.912 213.92 306.048 260.984 306.048 260.984L315.912 256.688C315.912 256.688 296.888 213.84 292.824 195.888C288.416 176.432 278.976 133.536 278.976 133.536L258.784 135.544Z" fill="#263238"/>
<path d="M303.128 257.736C303.088 257.736 306.328 262.368 306.328 262.368L317.408 257.472L315.168 252.888L303.128 257.736Z" fill="#92E3A9"/>
<path opacity="0.3" d="M264.552 151.056C272.376 151.8 274.376 180.504 274.904 195.32C271.664 185.128 266.456 165.424 262.84 151.432C263.352 151.117 263.955 150.985 264.552 151.056Z" fill="black"/>
<path d="M247.688 136.632C247.688 136.632 248.96 181.848 251.352 199.624C253.84 218.112 263.04 277.224 263.04 277.224H273C273 277.224 270.696 217.528 269.344 199.264C267.872 179.352 268.256 134.592 268.256 134.592L247.688 136.632Z" fill="#263238"/>
<path d="M261.056 272.576C261.016 272.576 261.856 278.6 261.856 278.6L273.96 278.184L274.072 272.584L261.056 272.576Z" fill="#92E3A9"/>
</svg>
